<?xml version="1.0" encoding="utf-8"?>
<!-- Generator: Adobe Illustrator 26.1.0, SVG Export Plug-In . SVG Version: 6.00 Build 0)  -->
<svg version="1.1" id="Layer_1" xmlns="http://www.w3.org/2000/svg" xmlns:xlink="http://www.w3.org/1999/xlink" x="0px" y="0px"
	 viewBox="0 0 630.9 612" style="enable-background:new 0 0 630.9 612;" xml:space="preserve">
<style type="text/css">
	.st0{fill:url(#SVGID_1_);}
	.st1{fill:url(#SVGID_00000176029775112593902750000000887259822908397696_);}
	.st2{fill:url(#SVGID_00000075880825160581364590000012727175681194772392_);}
	.st3{fill:url(#SVGID_00000078039376916912182180000015480323704356046526_);}
	.st4{fill:url(#SVGID_00000183245132817593211230000005371592105551196601_);}
	.st5{fill:url(#SVGID_00000106864368602453956500000003209894578287551144_);}
	.st6{fill:url(#SVGID_00000152961456718205519890000002171410471864611489_);}
	.st7{fill:#FFAB08;}
	.st8{opacity:0.43;fill:url(#SVGID_00000170997114703810440990000005541980869082639494_);}
	.st9{opacity:4.000000e-02;fill:url(#SVGID_00000130639088082142994170000011560283507233096635_);}
	.st10{fill:url(#SVGID_00000118361848801245195080000011155114391808320185_);}
	.st11{fill:url(#SVGID_00000029038384210842224080000007642478735619788427_);}
	.st12{fill:url(#SVGID_00000134958940909902418090000000927786266490609287_);}
	.st13{fill:url(#SVGID_00000097459220041195992240000017880836004956480416_);}
	.st14{opacity:0.49;fill:url(#SVGID_00000033334183061623661220000000056664952845708960_);}
	.st15{fill:url(#SVGID_00000062168536575444001850000002396094411862330025_);}
	.st16{fill:url(#SVGID_00000008852941525435776150000011482556453846608567_);}
	.st17{opacity:4.000000e-02;fill:url(#SVGID_00000074434379638213319150000006164343727706264990_);}
	.st18{fill:url(#SVGID_00000049195998348759809420000014222138272237657770_);}
	.st19{fill:url(#SVGID_00000108279947128187712710000011137934700248466589_);}
	.st20{fill:url(#SVGID_00000050650054420115351720000014113870079286563753_);}
	.st21{fill:url(#SVGID_00000069366686585189722220000004228720830327888270_);}
	.st22{opacity:0.49;fill:url(#SVGID_00000114754472301318492370000016662381540596526502_);}
	.st23{fill:url(#SVGID_00000028292066751824764070000012079052633167536787_);}
	.st24{fill:url(#SVGID_00000158744119325201031000000010955001575623445391_);}
	.st25{opacity:0.47;fill:url(#SVGID_00000170989078719520262570000002160626241812253335_);}
	.st26{fill:url(#SVGID_00000136410271862070307200000003564542562091683729_);}
	.st27{fill:url(#SVGID_00000052796948717991458020000009468133824626265493_);}
	.st28{fill:url(#SVGID_00000123442482038094013600000002086340341479623098_);}
	.st29{fill:url(#SVGID_00000088850361550690525510000006637018116893456011_);}
	.st30{fill:url(#SVGID_00000044856390111474955100000008454636795679158460_);}
	.st31{fill:url(#SVGID_00000026130447308556728780000015449906770015275706_);}
	.st32{fill:url(#SVGID_00000110431945071763701220000017263052610267648145_);}
	.st33{opacity:0.43;fill:url(#SVGID_00000149340255821484427950000013577686175158830269_);}
	.st34{opacity:4.000000e-02;fill:url(#SVGID_00000070833276483653677990000013794701649222200479_);}
	.st35{fill:url(#SVGID_00000017504766215720568770000015748035520744671369_);}
	.st36{fill:url(#SVGID_00000012434772240583763550000003285257540807516574_);}
	.st37{fill:url(#SVGID_00000052823826708873799360000013411994038804229006_);}
	.st38{fill:url(#SVGID_00000017479957755544805870000017828000537600209854_);}
	.st39{opacity:0.49;fill:url(#SVGID_00000122712812126838662240000001080864366461302191_);}
	.st40{fill:url(#SVGID_00000014631676813940590420000002953973967820108203_);}
	.st41{fill:url(#SVGID_00000066485936750697262130000017989709422404523917_);}
	.st42{opacity:4.000000e-02;fill:url(#SVGID_00000168102474370559046990000010423350045117747365_);}
	.st43{fill:url(#SVGID_00000091006085795646718230000011190048923917534344_);}
	.st44{fill:url(#SVGID_00000107549264890161259840000010839965551974749341_);}
	.st45{fill:url(#SVGID_00000055674907762141330510000009716885457550536099_);}
	.st46{fill:url(#SVGID_00000137837850560926400820000000971240312248436912_);}
	.st47{opacity:0.49;fill:url(#SVGID_00000054971600348202124110000015042884581630367112_);}
	.st48{fill:url(#SVGID_00000176042039757559619790000003466145853255262377_);}
	.st49{fill:url(#SVGID_00000168103950039065509690000006054625278426461850_);}
	.st50{fill:#FFFFFF;}
	.st51{opacity:0.47;fill:url(#SVGID_00000178195273566365073340000004178518431771451275_);}
	.st52{fill:url(#SVGID_00000052088133954955083920000017935504236676826019_);}
	.st53{fill:url(#SVGID_00000021101814269401865580000006669544500398325644_);}
	.st54{fill:url(#SVGID_00000139990581061477135460000005071216674639167623_);}
	.st55{fill:url(#SVGID_00000017500384408304177410000014837907697481321885_);}
	.st56{fill:url(#SVGID_00000160191964881030576060000011791985388787146143_);}
	.st57{fill:url(#SVGID_00000106105523447049825500000001780158709918265985_);}
	.st58{fill:url(#SVGID_00000098943334816905248590000006644850328156862343_);}
	.st59{opacity:0.43;fill:url(#SVGID_00000009592542046496213580000007565054613722608512_);}
	.st60{opacity:4.000000e-02;fill:url(#SVGID_00000176031405327090825910000007779195646857377412_);}
	.st61{fill:url(#SVGID_00000005234398286617843310000009921585750446215340_);}
	.st62{fill:url(#SVGID_00000152222476046166485100000014110208319436535719_);}
	.st63{fill:url(#SVGID_00000108303437150536760170000010714835321906867380_);}
	.st64{fill:url(#SVGID_00000029724571205165127600000016022880170142209935_);}
	.st65{opacity:0.49;fill:url(#SVGID_00000106132713917616478690000003995792927251320997_);}
	.st66{fill:url(#SVGID_00000031185570603837102970000000167585752631888256_);}
	.st67{fill:url(#SVGID_00000055678078758500010260000018096365148251900853_);}
	.st68{opacity:4.000000e-02;fill:url(#SVGID_00000093857889748227597010000008379496030648587162_);}
	.st69{fill:url(#SVGID_00000115511730013381836870000004897293536644075957_);}
	.st70{fill:url(#SVGID_00000100362854174136932710000016122197314859392645_);}
	.st71{fill:url(#SVGID_00000023998868524133154290000015997356164465845424_);}
	.st72{fill:url(#SVGID_00000019656362937933406590000002327655754800705454_);}
	.st73{opacity:0.49;fill:url(#SVGID_00000180348235119190597580000005799647184971010695_);}
	.st74{fill:url(#SVGID_00000143587005342504199940000006819365928352387220_);}
	.st75{fill:url(#SVGID_00000007403735693429144530000003382607254710264751_);}
	.st76{fill:#2B4754;}
	.st77{opacity:0.47;fill:url(#SVGID_00000071562059160593002900000008236785570731778750_);}
	.st78{fill:#414042;}
	.st79{opacity:0.43;}
	.st80{opacity:4.000000e-02;}
	.st81{opacity:0.49;}
	.st82{fill:#BEBFBD;}
	.st83{opacity:0.43;fill:#FFFFFF;}
	.st84{opacity:4.000000e-02;fill:#FFFFFF;}
	.st85{opacity:0.49;fill:#FFFFFF;}
</style>
<linearGradient id="SVGID_1_" gradientUnits="userSpaceOnUse" x1="257.2849" y1="488.0668" x2="371.1796" y2="488.0668">
	<stop  offset="0" style="stop-color:#31637A"/>
	<stop  offset="0.5026" style="stop-color:#211915"/>
	<stop  offset="1" style="stop-color:#2F5C70"/>
</linearGradient>
<path class="st0" d="M371.2,456.9c-39.9-47.7-10.2-80.4-10.2-80.4l-36.5,14.2l-10.3,51.1L304,390.7l-36.5-14.2
	c0,0,29.7,32.7-10.2,80.4c0,0,47,43.8,56.9,142.4v0.2c0,0,0-0.1,0-0.1c0,0,0,0.1,0,0.1v-0.2C324.2,500.8,371.2,456.9,371.2,456.9z"
	/>
<linearGradient id="SVGID_00000091702517782282937580000001679758566289978008_" gradientUnits="userSpaceOnUse" x1="82.4999" y1="246.6552" x2="271.3175" y2="385.9408">
	<stop  offset="0" style="stop-color:#FC9208;stop-opacity:0"/>
	<stop  offset="0.4497" style="stop-color:#FC9508"/>
	<stop  offset="1" style="stop-color:#FC9508;stop-opacity:0"/>
</linearGradient>
<polygon style="fill:url(#SVGID_00000091702517782282937580000001679758566289978008_);" points="58.8,267.6 85.1,243 272.8,348.6 
	286.8,392.7 253.8,401.1 230.6,359 181.2,320.7 126.8,307.3 "/>
<linearGradient id="SVGID_00000088843069655472444870000013793407295660883120_" gradientUnits="userSpaceOnUse" x1="-2953.9192" y1="246.6552" x2="-2765.1016" y2="385.9408" gradientTransform="matrix(-1 0 0 1 -2407.9546 0)">
	<stop  offset="0" style="stop-color:#FC9208;stop-opacity:0"/>
	<stop  offset="0.4497" style="stop-color:#FC9508"/>
	<stop  offset="1" style="stop-color:#FC9508;stop-opacity:0"/>
</linearGradient>
<polygon style="fill:url(#SVGID_00000088843069655472444870000013793407295660883120_);" points="569.6,267.6 543.4,243 
	355.7,348.6 341.7,392.7 374.7,401.1 397.9,359 447.3,320.7 501.7,307.3 "/>
<linearGradient id="SVGID_00000083788434156420681480000002585234966905438848_" gradientUnits="userSpaceOnUse" x1="17.3181" y1="305.0374" x2="611.1461" y2="305.0374">
	<stop  offset="0" style="stop-color:#31637A"/>
	<stop  offset="0.4815" style="stop-color:#211915"/>
	<stop  offset="1" style="stop-color:#305E73"/>
</linearGradient>
<path style="fill:url(#SVGID_00000083788434156420681480000002585234966905438848_);" d="M611.1,129.1
	c-32.3,102.2-102.9,125.4-137.8,130.5C588.3,220.8,583,83.3,583,83.3c-8.3,63.9-37.3,102.7-66.7,126c-16.9,13.4-34,21.7-47.3,26.7
	c122.2-69.4,68.2-214.2,68.2-214.2C564,162.6,455.1,217,455.1,217l0,0c116.6-74.5,43.6-206.6,43.6-206.6
	c-3.1,53.3-23.8,96.2-43,125.1c-13.4,20.1-26,33.5-31.5,39l-109.9,58.7l-109.9-58.7c-5.5-5.5-18.2-18.9-31.5-39
	c-19.2-28.9-39.9-71.8-43-125.1c0,0-73.1,132.1,43.6,206.6l0,0c0,0-108.9-54.5-82.1-195.2c0,0-54,144.8,68.2,214.2
	c-13.3-5-30.3-13.3-47.3-26.7c-29.4-23.3-58.3-62-66.7-126c0,0-5.4,137.4,109.7,176.3c-34.9-5.1-105.5-28.3-137.8-130.5
	c0.5,3,15.9,98.9,87,138.7l0,0c0,0,0.2,0.1,0.6,0.3c0.6,0.3,1.1,0.6,1.7,0.9c7.5,4,32.4,17.1,64,30.4c1.2,0.5,2.5,1,3.7,1.6
	c8.9,3.9,32.3,15.1,56.2,35.1c0,0,0,0,0,0c18.8,15.7,37.8,36.8,50.2,64c19.4,43.6,33.1,106.3,33.4,196.5v3c0-0.5,0-1,0-1.5
	c0,0.5,0,1,0,1.5v-3c0.3-90.2,14-152.9,33.4-196.5c12.4-27.2,31.5-48.3,50.2-64c0,0,0,0,0,0c23.9-20,47.3-31.2,56.2-35.1
	c1.3-0.5,2.5-1,3.7-1.6c31.6-13.3,56.5-26.3,64-30.4c0.6-0.3,1.2-0.6,1.7-0.9c0.4-0.2,0.6-0.3,0.6-0.3l0,0
	C595.3,228,610.7,132.1,611.1,129.1z"/>
<g>
	
		<linearGradient id="SVGID_00000016070626243588039700000011753577495652817319_" gradientUnits="userSpaceOnUse" x1="217.7616" y1="110.4153" x2="217.948" y2="110.4153">
		<stop  offset="0" style="stop-color:#E8D3AB"/>
		<stop  offset="0.4921" style="stop-color:#FAD035"/>
		<stop  offset="1" style="stop-color:#E8D3AB"/>
	</linearGradient>
	<path style="fill:url(#SVGID_00000016070626243588039700000011753577495652817319_);" d="M217.9,110.6c-0.1-0.2-0.2-0.3-0.2-0.3
		S217.8,110.4,217.9,110.6z"/>
	
		<linearGradient id="SVGID_00000030462972946685912410000004262457958567984282_" gradientUnits="userSpaceOnUse" x1="186.3178" y1="201.737" x2="442.1464" y2="201.737">
		<stop  offset="0" style="stop-color:#E8D3AB"/>
		<stop  offset="0.4921" style="stop-color:#FAD035"/>
		<stop  offset="1" style="stop-color:#E8D3AB"/>
	</linearGradient>
	<path style="fill:url(#SVGID_00000030462972946685912410000004262457958567984282_);" d="M396,177.3c-16-15.2,12.1-62.7,14.5-66.7
		c-2.4,3.9-30.2,48.5-60.1,40.8c-29.9-7.7-35.7-77.6-36.1-83.9V67c0,0,0,0.1,0,0.3c0-0.2,0-0.3,0-0.3v0.5
		c-0.5,6.3-6.2,76.1-36.1,83.9c-29.9,7.7-57.7-36.8-60.1-40.8c2.4,4,30.5,51.5,14.5,66.7c-16.7,15.9-46.2-25.2-46.2-25.2
		s16.8,60,67.5,85.3c30.5,14.5,38.4,42.1,39.1,48.8c0,0,20.9,17.6,21.3,49.4v0.9c0-0.2,0-0.3,0-0.4c0,0.2,0,0.3,0,0.4v-0.9
		c0.4-31.8,21.3-49.4,21.3-49.4c0.7-6.7,8.6-34.3,39.1-48.8c50.6-25.3,67.5-85.3,67.5-85.3S412.7,193.2,396,177.3z"/>
	
		<linearGradient id="SVGID_00000160869701480796039170000004206158028310546306_" gradientUnits="userSpaceOnUse" x1="410.5162" y1="110.4153" x2="410.7026" y2="110.4153">
		<stop  offset="0" style="stop-color:#E8D3AB"/>
		<stop  offset="0.4921" style="stop-color:#FAD035"/>
		<stop  offset="1" style="stop-color:#E8D3AB"/>
	</linearGradient>
	<path style="fill:url(#SVGID_00000160869701480796039170000004206158028310546306_);" d="M410.5,110.6c0.1-0.2,0.2-0.3,0.2-0.3
		S410.6,110.4,410.5,110.6z"/>
</g>
<path class="st7" d="M378.2,164.8c-46.2,34.9-63.2-32.5-63.9-35.6v-0.2c0,0,0,0.1,0,0.1c0,0,0-0.1,0-0.1v0.2
	c-0.8,3.1-17.7,70.5-63.9,35.6c0,0-2.9,30.7,29.1,49.7c30.1,17.9,34.5,62.4,34.9,67.5v0.5c0,0,0-0.1,0-0.3c0,0.2,0,0.3,0,0.3v-0.5
	c0.4-5.1,4.7-49.6,34.9-67.5C381.1,195.5,378.2,164.8,378.2,164.8z"/>
<linearGradient id="SVGID_00000127018238174544182750000006962459721041361553_" gradientUnits="userSpaceOnUse" x1="307.0238" y1="283.2661" x2="331.045" y2="341.7363">
	<stop  offset="0" style="stop-color:#0B0808;stop-opacity:0"/>
	<stop  offset="0.4999" style="stop-color:#1F2228"/>
	<stop  offset="1" style="stop-color:#00D4CB"/>
</linearGradient>
<path style="opacity:0.43;fill:url(#SVGID_00000127018238174544182750000006962459721041361553_);" d="M343.4,300.8l-7.8-14.5
	l-21.3,9.1l-21.3-9.1l-7.8,14.5c0,0,28.7,26.3,29.1,70.2v0.9c0-0.2,0-0.3,0-0.4c0,0.2,0,0.3,0,0.4v-0.9
	C314.6,327,343.4,300.8,343.4,300.8z"/>
<linearGradient id="SVGID_00000008138160100927869070000013485780814307507639_" gradientUnits="userSpaceOnUse" x1="172.7874" y1="367.5797" x2="314.2461" y2="367.5797">
	<stop  offset="0" style="stop-color:#FC9208"/>
	<stop  offset="0.4497" style="stop-color:#FC9508"/>
	<stop  offset="1" style="stop-color:#FC9508;stop-opacity:0"/>
</linearGradient>
<path style="opacity:4.000000e-02;fill:url(#SVGID_00000008138160100927869070000013485780814307507639_);" d="M314.2,233.2v366.5
	c0-91.8-13.8-155.4-33.4-199.4c-12.4-27.2-31.5-48.3-50.2-64c0,0,0,0,0,0c-55.5-76.7-57.8-200.6-57.8-200.6
	c13.4,20.1,26,33.5,31.5,39L314.2,233.2z"/>
<linearGradient id="SVGID_00000159445898616497264330000005093955165945176252_" gradientUnits="userSpaceOnUse" x1="13.1858" y1="325.8542" x2="264.6049" y2="325.8542">
	<stop  offset="0" style="stop-color:#31637A"/>
	<stop  offset="1" style="stop-color:#211915"/>
</linearGradient>
<path style="fill:url(#SVGID_00000159445898616497264330000005093955165945176252_);" d="M264.1,413.7c-0.7,4.3-2.3,12.9-10.3,18.4
	c-28.1,19.5-101.1-23-105-25.3c-23.5-14-39.4-29.5-49.3-40.7c40.1,30.6,69.2,3.9,69.2,3.9c-19.1,2.7-35.8-1.7-49.8-9
	c-32.1-16.9-50.1-49.7-50.1-49.7c39.7,19.5,82.8,14.5,82.8,14.5c-121.4-42.1-137.4-107-138.3-111c0-0.1,0-0.2,0-0.2
	C30,233.8,47.5,249.4,64.8,262c9.6,7,19.2,13.2,28.5,18.5c44,25.4,66.6,24.6,107,51.3c2.4,1.6,4.8,3.2,7.3,5
	c2.4,1.7,5.2,3.7,8.1,5.8c18,13.2,42.4,33.4,47.7,56C264.7,403.5,265,408.6,264.1,413.7z"/>
<linearGradient id="SVGID_00000116194482028421141310000002529248816259445389_" gradientUnits="userSpaceOnUse" x1="230.6101" y1="263.8383" x2="283.9594" y2="263.8383">
	<stop  offset="0" style="stop-color:#B64B0F"/>
	<stop  offset="1" style="stop-color:#FEAF0A"/>
</linearGradient>
<path style="fill:url(#SVGID_00000116194482028421141310000002529248816259445389_);" d="M230.6,233.5c0,0,16.5,15.6,28.8,22.1
	c12.3,6.4,22.3,25.1,24.6,38.5c0,0-34.9-8.4-43.9-39.1C237.3,244.1,230.6,233.5,230.6,233.5z"/>
<linearGradient id="SVGID_00000046319947030499845290000010018427430180061076_" gradientUnits="userSpaceOnUse" x1="257.9341" y1="263.1497" x2="267.1515" y2="253.3736">
	<stop  offset="0" style="stop-color:#283840;stop-opacity:0"/>
	<stop  offset="1" style="stop-color:#231F20"/>
</linearGradient>
<path style="fill:url(#SVGID_00000046319947030499845290000010018427430180061076_);" d="M230.6,233.5c0,0,16.5,15.6,28.8,22.1
	c12.3,6.4,22.3,25.1,24.6,38.5c0,0-34.9-8.4-43.9-39.1C237.3,244.1,230.6,233.5,230.6,233.5z"/>
<linearGradient id="SVGID_00000091001737277196775110000003096871742591241650_" gradientUnits="userSpaceOnUse" x1="308.0385" y1="269.2112" x2="299.7292" y2="179.9762">
	<stop  offset="0" style="stop-color:#FC9208"/>
	<stop  offset="0.4497" style="stop-color:#FC9508"/>
	<stop  offset="1" style="stop-color:#FC9508;stop-opacity:0"/>
</linearGradient>
<path style="fill:url(#SVGID_00000091001737277196775110000003096871742591241650_);" d="M282.3,177.4c0,0-1.5,27.4,14.5,44.4
	s17.4,60.8,17.4,60.8V145.5C314.3,145.5,305.9,209.3,282.3,177.4z"/>
<linearGradient id="SVGID_00000133489564993634425770000005573424337851889566_" gradientUnits="userSpaceOnUse" x1="302.3575" y1="310.0962" x2="313.5316" y2="337.2953">
	<stop  offset="0" style="stop-color:#FFFFFF"/>
	<stop  offset="0.4946" style="stop-color:#1F2228"/>
	<stop  offset="1" style="stop-color:#00D4CB"/>
</linearGradient>
<path style="opacity:0.49;fill:url(#SVGID_00000133489564993634425770000005573424337851889566_);" d="M304,308.1
	c0,0,9.4,11.6,10.3,36.5v3.2C314.3,347.8,313,326.9,304,308.1z"/>
<linearGradient id="SVGID_00000054945971856186176420000018180050499584972161_" gradientUnits="userSpaceOnUse" x1="112.1745" y1="262.1656" x2="270.5484" y2="262.1656">
	<stop  offset="0" style="stop-color:#FC9208"/>
	<stop  offset="0.4497" style="stop-color:#FC9508"/>
	<stop  offset="1" style="stop-color:#FC9508;stop-opacity:0"/>
</linearGradient>
<path style="fill:url(#SVGID_00000054945971856186176420000018180050499584972161_);" d="M270.5,314.5c0,0-32.1,6.5-53.9-28.3
	c-21.8-34.8-89.4-33.3-104.5-76.9c16.9,13.4,34,21.7,47.3,26.7c0,0,30.7,12.6,51.9,23.2C232.6,269.8,236.5,300.2,270.5,314.5z"/>
<linearGradient id="SVGID_00000004506450724499658320000013741621301540199082_" gradientUnits="userSpaceOnUse" x1="157.8744" y1="365.2863" x2="187.8543" y2="323.0164">
	<stop  offset="0" style="stop-color:#FC9208"/>
	<stop  offset="0.4497" style="stop-color:#FC9508"/>
	<stop  offset="1" style="stop-color:#FC9508;stop-opacity:0"/>
</linearGradient>
<path style="fill:url(#SVGID_00000004506450724499658320000013741621301540199082_);" d="M215.8,342.7c-5,8.8-17.4,22.1-47.2,27.4
	c-19.1,2.7-35.8-1.7-49.8-9.1c0,0,51,4.4,81.6-29.1c2.4,1.6,4.8,3.2,7.3,5C210.2,338.6,212.9,340.5,215.8,342.7z"/>
<linearGradient id="SVGID_00000111190811686373667190000008236282728391165373_" gradientUnits="userSpaceOnUse" x1="-2863.6316" y1="367.5797" x2="-2722.1729" y2="367.5797" gradientTransform="matrix(-1 0 0 1 -2407.9546 0)">
	<stop  offset="0" style="stop-color:#FC9208"/>
	<stop  offset="0.4497" style="stop-color:#FC9508"/>
	<stop  offset="1" style="stop-color:#FC9508;stop-opacity:0"/>
</linearGradient>
<path style="opacity:4.000000e-02;fill:url(#SVGID_00000111190811686373667190000008236282728391165373_);" d="M314.2,233.2v366.5
	c0-91.8,13.8-155.4,33.4-199.4c12.4-27.2,31.5-48.3,50.2-64c0,0,0,0,0,0c55.5-76.7,57.8-200.6,57.8-200.6
	c-13.4,20.1-26,33.5-31.5,39L314.2,233.2z"/>
<linearGradient id="SVGID_00000085940386815695113710000010643234118591953024_" gradientUnits="userSpaceOnUse" x1="-3023.2332" y1="325.8542" x2="-2771.8142" y2="325.8542" gradientTransform="matrix(-1 0 0 1 -2407.9546 0)">
	<stop  offset="0" style="stop-color:#31637A"/>
	<stop  offset="1" style="stop-color:#211915"/>
</linearGradient>
<path style="fill:url(#SVGID_00000085940386815695113710000010643234118591953024_);" d="M364.4,413.7c0.7,4.3,2.3,12.9,10.3,18.4
	c28.1,19.5,101.1-23,105-25.3c23.5-14,39.4-29.5,49.3-40.7c-40.1,30.6-69.2,3.9-69.2,3.9c19.1,2.7,35.8-1.7,49.8-9
	c32.1-16.9,50.1-49.7,50.1-49.7c-39.7,19.5-82.8,14.5-82.8,14.5c121.4-42.1,137.4-107,138.3-111c0-0.1,0-0.2,0-0.2
	c-16.8,19.3-34.3,34.8-51.7,47.4c-9.6,7-19.2,13.2-28.5,18.5c-44,25.4-66.6,24.6-107,51.3c-2.4,1.6-4.8,3.2-7.3,5
	c-2.4,1.7-5.2,3.7-8.1,5.8c-18,13.2-42.4,33.4-47.7,56C363.8,403.5,363.5,408.6,364.4,413.7z"/>
<linearGradient id="SVGID_00000075134704998061693270000004929452210539536800_" gradientUnits="userSpaceOnUse" x1="-2805.8088" y1="263.8383" x2="-2752.4595" y2="263.8383" gradientTransform="matrix(-1 0 0 1 -2407.9546 0)">
	<stop  offset="0" style="stop-color:#B64B0F"/>
	<stop  offset="1" style="stop-color:#FEAF0A"/>
</linearGradient>
<path style="fill:url(#SVGID_00000075134704998061693270000004929452210539536800_);" d="M397.9,233.5c0,0-16.5,15.6-28.8,22.1
	c-12.3,6.4-22.3,25.1-24.6,38.5c0,0,34.9-8.4,43.9-39.1C391.2,244.1,397.9,233.5,397.9,233.5z"/>
<linearGradient id="SVGID_00000082332090490590306360000007979433843275337633_" gradientUnits="userSpaceOnUse" x1="-2778.4849" y1="263.1497" x2="-2769.2676" y2="253.3736" gradientTransform="matrix(-1 0 0 1 -2407.9546 0)">
	<stop  offset="0" style="stop-color:#283840;stop-opacity:0"/>
	<stop  offset="1" style="stop-color:#231F20"/>
</linearGradient>
<path style="fill:url(#SVGID_00000082332090490590306360000007979433843275337633_);" d="M397.9,233.5c0,0-16.5,15.6-28.8,22.1
	c-12.3,6.4-22.3,25.1-24.6,38.5c0,0,34.9-8.4,43.9-39.1C391.2,244.1,397.9,233.5,397.9,233.5z"/>
<linearGradient id="SVGID_00000007391565451702828390000007300150644462784932_" gradientUnits="userSpaceOnUse" x1="-2728.3806" y1="269.2112" x2="-2736.6899" y2="179.9762" gradientTransform="matrix(-1 0 0 1 -2407.9546 0)">
	<stop  offset="0" style="stop-color:#FC9208"/>
	<stop  offset="0.4497" style="stop-color:#FC9508"/>
	<stop  offset="1" style="stop-color:#FC9508;stop-opacity:0"/>
</linearGradient>
<path style="fill:url(#SVGID_00000007391565451702828390000007300150644462784932_);" d="M346.2,177.4c0,0,1.5,27.4-14.5,44.4
	s-17.4,60.8-17.4,60.8V145.5C314.2,145.5,322.5,209.3,346.2,177.4z"/>
<linearGradient id="SVGID_00000088116802890276523580000002420671889855880842_" gradientUnits="userSpaceOnUse" x1="-2734.0615" y1="310.0962" x2="-2722.8875" y2="337.2953" gradientTransform="matrix(-1 0 0 1 -2407.9546 0)">
	<stop  offset="0" style="stop-color:#FFFFFF"/>
	<stop  offset="0.4946" style="stop-color:#1F2228"/>
	<stop  offset="1" style="stop-color:#00D4CB"/>
</linearGradient>
<path style="opacity:0.49;fill:url(#SVGID_00000088116802890276523580000002420671889855880842_);" d="M324.5,308.1
	c0,0-9.4,11.6-10.3,36.5v3.2C314.2,347.8,315.5,326.9,324.5,308.1z"/>
<linearGradient id="SVGID_00000070111127919852171440000003231452361658110120_" gradientUnits="userSpaceOnUse" x1="-2924.2446" y1="262.1656" x2="-2765.8706" y2="262.1656" gradientTransform="matrix(-1 0 0 1 -2407.9546 0)">
	<stop  offset="0" style="stop-color:#FC9208"/>
	<stop  offset="0.4497" style="stop-color:#FC9508"/>
	<stop  offset="1" style="stop-color:#FC9508;stop-opacity:0"/>
</linearGradient>
<path style="fill:url(#SVGID_00000070111127919852171440000003231452361658110120_);" d="M357.9,314.5c0,0,32.1,6.5,53.9-28.3
	c21.8-34.8,89.4-33.3,104.5-76.9c-16.9,13.4-34,21.7-47.3,26.7c0,0-30.7,12.6-51.9,23.2C395.9,269.8,391.9,300.2,357.9,314.5z"/>
<linearGradient id="SVGID_00000088853765522682595410000005306841507748609683_" gradientUnits="userSpaceOnUse" x1="-2878.5447" y1="365.2863" x2="-2848.5647" y2="323.0164" gradientTransform="matrix(-1 0 0 1 -2407.9546 0)">
	<stop  offset="0" style="stop-color:#FC9208"/>
	<stop  offset="0.4497" style="stop-color:#FC9508"/>
	<stop  offset="1" style="stop-color:#FC9508;stop-opacity:0"/>
</linearGradient>
<path style="fill:url(#SVGID_00000088853765522682595410000005306841507748609683_);" d="M412.6,342.7c5,8.8,17.4,22.1,47.2,27.4
	c19.1,2.7,35.8-1.7,49.8-9.1c0,0-51,4.4-81.6-29.1c-2.4,1.6-4.8,3.2-7.3,5C418.3,338.6,415.6,340.5,412.6,342.7z"/>
<linearGradient id="SVGID_00000168831897446436488310000000440131078531108232_" gradientUnits="userSpaceOnUse" x1="344.0875" y1="488.0461" x2="316.8174" y2="336.356">
	<stop  offset="7.833168e-03" style="stop-color:#231D19"/>
	<stop  offset="0.5238" style="stop-color:#2B4653"/>
	<stop  offset="1" style="stop-color:#231D19"/>
</linearGradient>
<path style="opacity:0.47;fill:url(#SVGID_00000168831897446436488310000000440131078531108232_);" d="M314.3,403
	c0-46.6-43.7-80.9-43.7-80.9c30.4,67,43.7,184.9,43.7,184.9s13.3-117.8,43.7-184.9C358,322.1,314.3,356.4,314.3,403z"/>
</svg>
