<?xml version="1.0" encoding="utf-8"?>
<!-- Generator: Adobe Illustrator 26.1.0, SVG Export Plug-In . SVG Version: 6.00 Build 0)  -->
<svg version="1.1" id="Layer_1" xmlns="http://www.w3.org/2000/svg" xmlns:xlink="http://www.w3.org/1999/xlink" x="0px" y="0px"
	 viewBox="0 0 630.9 612" style="enable-background:new 0 0 630.9 612;" xml:space="preserve">
<style type="text/css">
	.st0{fill:url(#SVGID_1_);}
	.st1{fill:url(#SVGID_00000074429456737125321620000009191240050558080650_);}
	.st2{fill:url(#SVGID_00000084519496726176885380000011955604558830176189_);}
	.st3{fill:url(#SVGID_00000091008339930132638910000005938803797138397072_);}
	.st4{fill:url(#SVGID_00000015342486577838842920000003960611730890257567_);}
	.st5{fill:url(#SVGID_00000058576214947858128090000008867585467354442129_);}
	.st6{fill:url(#SVGID_00000135673469180332092530000006650029522625451451_);}
	.st7{fill:#FFAB08;}
	.st8{opacity:0.43;fill:url(#SVGID_00000097495911328517431240000006000708951862416797_);}
	.st9{opacity:4.000000e-02;fill:url(#SVGID_00000080173103778365149830000015617254229328866699_);}
	.st10{fill:url(#SVGID_00000098912484208602996330000003180278306034870159_);}
	.st11{fill:url(#SVGID_00000097480174928418986820000006039241748442452381_);}
	.st12{fill:url(#SVGID_00000075143695091043730180000007413591381781169342_);}
	.st13{fill:url(#SVGID_00000060740106015596744810000017626797644228693420_);}
	.st14{opacity:0.49;fill:url(#SVGID_00000139291091934091318060000000944679151949208245_);}
	.st15{fill:url(#SVGID_00000147183275820672677690000013228425750718128292_);}
	.st16{fill:url(#SVGID_00000065787667766848016600000002385559161522765705_);}
	.st17{opacity:4.000000e-02;fill:url(#SVGID_00000136377615074363964350000012171456821257996954_);}
	.st18{fill:url(#SVGID_00000176034171488412960680000015439829916914028958_);}
	.st19{fill:url(#SVGID_00000021100046426835559750000013749875005694977977_);}
	.st20{fill:url(#SVGID_00000142140515639770476260000003427799162273799575_);}
	.st21{fill:url(#SVGID_00000001645121068850247580000001469378419679625393_);}
	.st22{opacity:0.49;fill:url(#SVGID_00000048462294341497501600000015534736490866627746_);}
	.st23{fill:url(#SVGID_00000175283141265256844700000011046103913376142482_);}
	.st24{fill:url(#SVGID_00000048473242239421683490000004369191957721500840_);}
	.st25{opacity:0.47;fill:url(#SVGID_00000115502578229259981940000004046471533665362051_);}
	.st26{fill:url(#SVGID_00000126303873064031440730000013757858742978988710_);}
	.st27{fill:url(#SVGID_00000156545402282546708630000001505258890449474441_);}
	.st28{fill:url(#SVGID_00000003091092891842649630000017967936163511273365_);}
	.st29{fill:url(#SVGID_00000115514459941266191020000007782988601621921190_);}
	.st30{fill:url(#SVGID_00000094599681847904693690000003723770187645047988_);}
	.st31{fill:url(#SVGID_00000172414695968321374070000002100257033468204695_);}
	.st32{fill:url(#SVGID_00000055689591508728692010000013933654004433525182_);}
	.st33{opacity:0.43;fill:url(#SVGID_00000022556939324838218550000013663411261440604817_);}
	.st34{opacity:4.000000e-02;fill:url(#SVGID_00000062180224444121060510000011080002905254533506_);}
	.st35{fill:url(#SVGID_00000121996647107646324860000010864732462328024747_);}
	.st36{fill:url(#SVGID_00000082360198981109497960000007326045043808497592_);}
	.st37{fill:url(#SVGID_00000101791234716497708510000007274561348084612529_);}
	.st38{fill:url(#SVGID_00000039840534214178335280000001271118415236826798_);}
	.st39{opacity:0.49;fill:url(#SVGID_00000175320242011787820930000005972776784328859284_);}
	.st40{fill:url(#SVGID_00000123438469195703093280000016640353822936679052_);}
	.st41{fill:url(#SVGID_00000078021052992386243180000014906752294223503254_);}
	.st42{opacity:4.000000e-02;fill:url(#SVGID_00000176015539665188945550000008845992009196723330_);}
	.st43{fill:url(#SVGID_00000039834363966972157020000005541886197436572292_);}
	.st44{fill:url(#SVGID_00000008855147326486416020000017523977722518983595_);}
	.st45{fill:url(#SVGID_00000096738585273673632930000007592081177572759442_);}
	.st46{fill:url(#SVGID_00000086665183924793762280000014800628548975222716_);}
	.st47{opacity:0.49;fill:url(#SVGID_00000115482260143547020420000006904100525908131971_);}
	.st48{fill:url(#SVGID_00000011729980976895436490000001852017450811886735_);}
	.st49{fill:url(#SVGID_00000062159536042062178120000003669870723677342087_);}
	.st50{fill:#FFFFFF;}
	.st51{opacity:0.47;fill:url(#SVGID_00000143589727523141020320000006254635590665132439_);}
	.st52{fill:url(#SVGID_00000009571712586767797050000016633495841773802881_);}
	.st53{fill:url(#SVGID_00000047753939994263590350000014412405413974641839_);}
	.st54{fill:url(#SVGID_00000110437438375213181360000001696335637677944706_);}
	.st55{fill:url(#SVGID_00000005956442190028608400000012956758597325182644_);}
	.st56{fill:url(#SVGID_00000166650810589667317560000008875969107428456613_);}
	.st57{fill:url(#SVGID_00000058571540119466483020000001948930468038724226_);}
	.st58{fill:url(#SVGID_00000133487412188784677450000014232315238082663578_);}
	.st59{opacity:0.43;fill:url(#SVGID_00000010998255297615050430000011561401553638649237_);}
	.st60{opacity:4.000000e-02;fill:url(#SVGID_00000111170639597381966710000001426892199006006458_);}
	.st61{fill:url(#SVGID_00000029013929231084176380000008423873106464288679_);}
	.st62{fill:url(#SVGID_00000139987619232399633790000001663405831338961804_);}
	.st63{fill:url(#SVGID_00000166647294319821061290000007230372375240364171_);}
	.st64{fill:url(#SVGID_00000131332124160968192350000005242470079560871305_);}
	.st65{opacity:0.49;fill:url(#SVGID_00000123429117851118219130000017541216816167204539_);}
	.st66{fill:url(#SVGID_00000161599734060010619030000011846257073973093789_);}
	.st67{fill:url(#SVGID_00000124124269522958847540000007097546107394449036_);}
	.st68{opacity:4.000000e-02;fill:url(#SVGID_00000104708375803327343470000006283358707018939050_);}
	.st69{fill:url(#SVGID_00000038387492180464540140000012999556838534742178_);}
	.st70{fill:url(#SVGID_00000031897952456265873860000014273091739091041460_);}
	.st71{fill:url(#SVGID_00000008861608819930629530000002558587859642726326_);}
	.st72{fill:url(#SVGID_00000012437923678823531940000002745703784021392787_);}
	.st73{opacity:0.49;fill:url(#SVGID_00000032615802522600423010000012161358310471802010_);}
	.st74{fill:url(#SVGID_00000064353694509508111360000000963553379122046622_);}
	.st75{fill:url(#SVGID_00000167393749955368237260000007969510241350215834_);}
	.st76{fill:#2B4754;}
	.st77{opacity:0.47;fill:url(#SVGID_00000174587470929782942250000012674130119922848902_);}
	.st78{fill:#414042;}
	.st79{opacity:0.43;}
	.st80{opacity:4.000000e-02;}
	.st81{opacity:0.49;}
	.st82{fill:#BEBFBD;}
	.st83{opacity:0.43;fill:#FFFFFF;}
	.st84{opacity:4.000000e-02;fill:#FFFFFF;}
	.st85{opacity:0.49;fill:#FFFFFF;}
</style>
<path d="M373.6,456.9c0,0-47,43.8-56.9,142.4v0.2c0,0,0-0.1,0-0.1c0,0,0,0.1,0,0.1v-0.2c-10-98.6-56.9-142.4-56.9-142.4
	c27.5-32.9,22-58.7,15.8-71.5c0,0,0-0.1,0-0.1c0,0,0,0,0-0.1v0c-2.6-5.3-5.2-8.4-5.5-8.7c0,0,0,0,0,0l24.5,9.6
	c14.7,57.2,21.7,116.2,22.2,120.6c0,0.1,0,0.1,0,0.2c0,0.1,0,0.1,0,0.1s6.9-61.5,22.2-120.9l24.5-9.5c0,0,0,0,0,0
	c-0.3,0.4-2.9,3.4-5.5,8.7c0,0,0,0,0,0s0,0,0,0c0,0,0,0,0,0C351.7,398,345.9,423.9,373.6,456.9z"/>
<path d="M613.6,129.1c-32.3,102.2-102.9,125.4-137.8,130.5c115-38.8,109.6-176.3,109.6-176.3c-8.3,63.9-37.3,102.7-66.7,126
	c-11.7,34-55.3,40.6-84.3,58.2c-8.3,5-15.4,11-20.2,18.7c-21.8,34.8-53.9,28.3-53.9,28.3c34-14.3,38-44.7,59.2-55.3
	c6.4-3.2,13.5-6.5,20.5-9.7c16.3-7.4,31.4-13.5,31.4-13.5c122.2-69.4,68.2-214.2,68.2-214.2C566.5,162.6,457.6,217,457.6,217l0,0
	c116.6-74.5,43.6-206.6,43.6-206.6c-3.1,53.3-23.8,96.2-43,125.1c-1.4,2.1-2.8,4.1-4.1,6.1c-0.3,0.4-0.5,0.8-0.8,1.2
	c-0.4,0.6-0.8,1.2-1.2,1.7c-0.8,1-1.5,2.1-2.2,3.1c-2.1,2.9-4.2,5.5-6.2,8c0,0,0,0,0,0c-0.9,1.1-1.8,2.2-2.7,3.3
	c-0.8,1-1.6,1.9-2.4,2.9c0,0.1-0.1,0.1-0.2,0.2c-0.4,0.5-0.8,1-1.2,1.4c-4.4,5.1-8.1,8.9-10.4,11.2l-74.9,39.9l0,0l-0.1,0.1l-0.1,0
	c-30.1,17.9-34.4,62.4-34.8,67.5v-0.4c0.3-6,2.5-39.1,14.5-56.2l-14.5,7.7l0,0l0,0l-14.5-7.7c12,17.1,14.2,50.3,14.5,56.2v0.4
	c-0.4-5.1-4.7-49.6-34.8-67.5l0,0l0,0l-0.1-0.1l-74.9-39.9c-3.4-3.4-9.6-9.8-16.9-19l0,0c-1.7-2.1-3.5-4.4-5.3-6.8
	c-0.6-0.8-1.2-1.6-1.8-2.5c-2.5-3.3-5-6.9-7.5-10.8c-19.2-28.9-39.9-71.8-43-125.1c0,0-73.1,132.1,43.6,206.6l0,0
	c0,0-108.9-54.5-82.1-195.2c0,0-54,144.8,68.2,214.2c0,0,15.1,6.2,31.4,13.5c7,3.1,14.2,6.5,20.5,9.7c21.2,10.6,25.2,41,59.2,55.3
	c0,0-32.1,6.5-53.9-28.3c-4.8-7.7-11.9-13.7-20.2-18.7c-29-17.7-72.5-24.3-84.3-58.2c-29.4-23.3-58.3-62-66.7-126
	c0,0-5.4,137.4,109.7,176.3C122.7,254.5,52,231.4,19.7,129.1c0.5,3,15.9,98.9,87,138.7l0,0c0,0,0.2,0.1,0.6,0.3
	c0.5,0.3,1.1,0.6,1.7,0.9c7.5,4,32.4,17.1,64,30.3c1.2,0.5,2.5,1,3.8,1.5c8.9,3.9,32.3,15.1,56.2,35.1c0,0,0,0,0,0
	c12.9,10.8,26,24.2,36.9,40.3c0,0,0,0,0,0c1.9,2.8,3.8,5.7,5.5,8.7v0c0,0,0,0,0,0.1c0,0,0,0.1,0,0.1c0.3,0.5,0.7,1.1,1,1.6
	c0.6,1.1,1.2,2.1,1.8,3.2c0.1,0.2,0.2,0.3,0.2,0.5c0.4,0.8,0.9,1.6,1.3,2.4c0.2,0.4,0.5,0.9,0.7,1.3c0.4,0.8,0.8,1.6,1.2,2.4
	c0.5,1.1,1.1,2.2,1.6,3.4c3.7,8.3,7.1,17.2,10.4,26.9c1.3,3.9,2.5,7.9,3.7,12c0.7,2.5,1.5,5.1,2.2,7.8c0.5,1.8,0.9,3.5,1.4,5.3
	c0.3,1.2,0.6,2.3,0.9,3.5c0.3,1.1,0.5,2.2,0.8,3.3c0.2,0.9,0.4,1.8,0.6,2.6c0.2,0.8,0.3,1.5,0.5,2.3c0.5,2.3,1,4.6,1.5,7
	c0.2,1.1,0.4,2.2,0.7,3.2c0.4,2.1,0.8,4.3,1.2,6.4c0,0.1,0,0.1,0,0.2c0.7,4.1,1.4,8.2,2.1,12.5c0.3,1.9,0.6,3.9,0.9,5.8
	c0.1,0.3,0.1,0.6,0.1,1c0.3,1.9,0.5,3.7,0.8,5.6c0,0.2,0.1,0.4,0.1,0.6c0.1,0.9,0.2,1.9,0.4,2.8c0.2,1.6,0.4,3.1,0.6,4.7
	c0.6,4.7,1.1,9.5,1.5,14.4c2,20.8,3,43.6,3.1,68.4v2.6c0-0.4,0-0.8,0-1.1c0,0.4,0,0.8,0,1.2v-2.7c0-1.8,0-3.6,0-5.4
	c0-4.7,0.1-9.2,0.2-13.7v-0.2c0.1-2.9,0.2-5.8,0.3-8.7c0-0.1,0-0.2,0-0.3c0.1-2.8,0.2-5.6,0.4-8.4c0.1-3.1,0.3-6.1,0.5-9
	c0.2-3.1,0.4-6.3,0.6-9.3c0.2-3.1,0.5-6.1,0.7-9.1c0.2-2,0.4-4,0.6-5.9c0.1-1.3,0.3-2.6,0.4-3.9c0.2-1.5,0.3-3,0.5-4.4
	c0-0.1,0-0.1,0-0.1c0.2-1.6,0.3-3.1,0.5-4.6c0.1-0.6,0.1-1.3,0.2-1.9c0.1-0.7,0.2-1.3,0.2-1.9c0.3-2.6,0.7-5.1,1-7.6
	c0-0.2,0.1-0.4,0.1-0.7c0.4-2.7,0.8-5.3,1.2-7.9c0.1-0.9,0.3-1.7,0.4-2.6c0.1-0.4,0.1-0.8,0.2-1.2c0.1-0.9,0.3-1.9,0.5-2.8
	c0.4-2.3,0.8-4.5,1.2-6.7c0.2-1.2,0.4-2.3,0.7-3.5c0.7-3.4,1.3-6.8,2.1-10.1c0.2-1.2,0.5-2.4,0.8-3.5c0.3-1.2,0.5-2.3,0.8-3.5
	c0.6-2.4,1.1-4.8,1.8-7.2c0.5-1.8,0.9-3.6,1.4-5.4c0.4-1.3,0.7-2.7,1.1-4c0.2-0.7,0.4-1.3,0.6-2c0.4-1.3,0.8-2.6,1.1-3.9
	c0.6-1.9,1.2-3.8,1.7-5.7c1.2-4,2.6-7.8,3.9-11.6c0.3-0.8,0.5-1.5,0.8-2.3c1.1-3,2.2-6,3.4-8.9c0.5-1.3,1-2.6,1.6-3.8
	c0.7-1.6,1.3-3.1,2-4.6c0.4-0.8,0.8-1.7,1.2-2.5c1.5-3.1,3-6,4.6-8.9c0.3-0.6,0.7-1.2,1-1.8c0.3-0.6,0.7-1.2,1-1.8c0,0,0,0,0,0
	c0,0,0,0,0,0s0,0,0,0c1.7-3,3.6-5.8,5.5-8.7c0,0,0,0,0,0c0,0,0,0,0-0.1c0.6-0.9,1.3-1.8,1.9-2.7c0.1-0.2,0.3-0.4,0.4-0.6
	c0.4-0.6,0.8-1.2,1.2-1.7c0.3-0.5,0.7-0.9,1-1.4c0.7-0.9,1.4-1.8,2.1-2.8c0.6-0.8,1.2-1.6,1.9-2.4c0.7-0.9,1.5-1.8,2.2-2.7
	c0.6-0.8,1.2-1.5,1.9-2.2c2.6-3,5.2-5.8,7.8-8.6c0.6-0.7,1.3-1.3,1.9-1.9c0.7-0.7,1.3-1.3,2-2c4.1-4,8.3-7.8,12.5-11.3c0,0,0,0,0,0
	c23.9-20,47.3-31.2,56.2-35.1c1.2-0.5,2.5-1,3.7-1.5c31.6-13.3,56.5-26.3,64-30.3c0.6-0.3,1.2-0.6,1.7-0.9c0.4-0.2,0.6-0.3,0.6-0.3
	l0,0C597.7,228,613.1,132.1,613.6,129.1z M390.8,255c-9,30.7-43.9,39.1-43.9,39.1c2.2-13.4,12.3-32.1,24.6-38.5
	c12-6.3,28.1-21.5,28.8-22C399.9,234.2,393.5,244.5,390.8,255z M242.5,255c-2.7-10.6-9.1-20.8-9.5-21.5c0.6,0.6,16.7,15.7,28.8,22
	c12.3,6.4,22.3,25.1,24.6,38.5C286.4,294.1,251.5,285.8,242.5,255z M316.7,506.9C316.7,506.9,316.7,506.9,316.7,506.9
	c0-0.1,0-0.2,0-0.3c-0.5-4.4-7.5-63.4-22.2-120.6c-5.9-22.8-13-45.4-21.5-64c0,0,42.4,33.2,43.7,78.7c0,0.5,0,1,0,1.5
	c0,0.2,0,0.5,0,0.7c0-46.6,43.7-80.9,43.7-80.9c-8.5,18.6-15.6,41.2-21.5,64C323.6,445.5,316.7,506.9,316.7,506.9z"/>
<path d="M220.4,110.6c-0.1-0.2-0.2-0.3-0.2-0.3S220.3,110.4,220.4,110.6z"/>
<path class="st78" d="M316.7,145.6c0,0,0,0.1,0,0.1v-0.3C316.7,145.5,316.7,145.5,316.7,145.6z M316.6,145.7c0-0.1,0-0.1,0-0.1
	c0-0.1,0-0.1,0-0.1V145.7z M284.7,177.4c0,0-1.5,27.4,14.5,44.4c1,1.1,2,2.3,2.9,3.6l14.5,7.7v-87.4
	C316,150.1,307.5,208.1,284.7,177.4z M398.4,177.3c-15.4-14.7,10.1-59.2,14.2-66.1c-4.1,6.6-31,47.6-59.8,40.1
	c-29.9-7.7-35.7-77.6-36.1-83.8V67c0,0,0,0.1,0,0.3c0-0.2,0-0.3,0-0.3v0.5c-0.5,6.3-6.2,76.1-36.1,83.8
	c-28.7,7.4-55.6-33.4-59.8-40.1c4.1,7,29.5,51.4,14.1,66.1c-16.5,15.7-45.5-24.2-46.2-25.1c0,0.1,0.4,1.4,1.1,3.4l0,0
	c4.4,13.1,23,60.2,66.4,81.9c30.5,14.5,38.4,42.1,39.1,48.8l0,0c0.6,0.5,20.9,18,21.3,49.4v0.9c0-0.1,0-0.2,0-0.2c0-0.1,0-0.1,0-0.2
	c0,0.1,0,0.2,0,0.2c0,0.1,0,0.1,0,0.2v-0.9c0.4-31.3,20.7-48.8,21.3-49.4l0,0c0.8-6.7,8.6-34.3,39.1-48.8
	c43.4-21.7,61.9-68.8,66.4-81.9c0,0,0,0,0,0c0.7-2,1-3.3,1.1-3.4C443.9,153.1,414.9,193,398.4,177.3z M351.6,214.5l-0.1,0.1l-0.1,0
	c-30.1,17.9-34.4,62.4-34.8,67.5v-0.4c0.3-6,2.5-39.1,14.5-56.2c0.9-1.3,1.9-2.5,2.9-3.6c16-17,14.5-44.4,14.5-44.4
	c-22.8,30.7-31.3-27.3-31.9-31.7v-0.3c0,0,0,0,0,0.1c0-0.1,0-0.1,0-0.1v0.3c-0.6,4.4-9.2,62.4-32,31.7c0,0-1.5,27.4,14.5,44.4
	c1,1.1,2,2.3,2.9,3.6c12,17.1,14.2,50.3,14.5,56.2v0.4c-0.4-5.1-4.7-49.6-34.8-67.5l0,0l0,0l-0.1-0.1c-31.8-19-28.9-49.6-28.9-49.6
	c46.2,34.9,63.2-32.5,63.9-35.6v-0.2c0,0,0,0.1,0,0.1c0,0,0-0.1,0-0.1v0.2c0.8,3.1,17.7,70.5,63.9,35.6
	C380.6,164.8,383.5,195.4,351.6,214.5L351.6,214.5z"/>
<path d="M412.9,110.6c0.1-0.2,0.2-0.3,0.2-0.3S413.1,110.4,412.9,110.6z"/>
<path d="M334.1,221.8c-1,1.1-2,2.3-2.9,3.6c-12,17.1-14.2,50.3-14.5,56.2v0.9c0,0,0,0,0-0.1c0,0,0-0.1,0-0.2c0,0,0,0.1,0,0.1
	c0,0.1,0,0.1,0,0.1v-0.9c-0.3-6-2.5-39.1-14.5-56.2c-0.9-1.3-1.9-2.5-2.9-3.6c-16-17-14.5-44.4-14.5-44.4
	c22.8,30.7,31.3-27.3,32-31.7v-0.3c0,0,0,0,0,0.1c0-0.1,0-0.1,0-0.1v0.3c0.6,4.4,9.2,62.4,31.9,31.7
	C348.6,177.4,350.1,204.8,334.1,221.8z"/>
<path class="st79" d="M345.8,300.8l-7.8-14.5l-21.3,9.1l-21.3-9.1l-7.8,14.5c0,0,28.7,26.3,29.1,70.2v0.9c0-0.2,0-0.3,0-0.4
	c0,0.2,0,0.3,0,0.4v-0.9C317.1,327,345.8,300.8,345.8,300.8z"/>
<path class="st80" d="M316.7,233.2L316.7,233.2l-14.5-7.7c12,17.1,14.2,50.3,14.5,56.2v0.4c-0.4-5.1-4.7-49.6-34.8-67.5l0,0l0,0
	l-0.1-0.1l-74.9-39.9c-3.4-3.4-9.6-9.8-16.9-19l0,0c-1.7-2.1-3.5-4.4-5.3-6.8c-0.6-0.8-1.2-1.6-1.8-2.5c-2.5-3.3-5-6.9-7.5-10.8
	c0,0,1,54.8,18,114c7,3.1,14.2,6.5,20.5,9.7c21.2,10.6,25.2,41,59.2,55.3c0,0-32.1,6.5-53.9-28.3c-4.8-7.7-11.9-13.7-20.2-18.7
	c8.2,24.1,19.3,48,34.2,68.6c0,0,0,0,0,0c12.9,10.8,26,24.2,36.9,40.3c0,0,0,0,0,0c1.9,2.8,3.8,5.7,5.5,8.7v0c0,0,0,0,0,0.1
	c0,0,0,0.1,0,0.1c0.3,0.5,0.7,1.1,1,1.6c0.6,1.1,1.2,2.1,1.8,3.2c0.1,0.2,0.2,0.3,0.2,0.5c0.4,0.8,0.9,1.6,1.3,2.4
	c0.2,0.4,0.5,0.9,0.7,1.3c0.4,0.8,0.8,1.6,1.2,2.4c0.5,1.1,1.1,2.2,1.6,3.4c3.7,8.3,7.1,17.2,10.4,26.9c1.3,3.9,2.5,7.9,3.7,12
	c0.7,2.5,1.5,5.1,2.2,7.8c0.5,1.8,0.9,3.5,1.4,5.3c0.3,1.2,0.6,2.3,0.9,3.5c0.3,1.1,0.5,2.2,0.8,3.3c0.2,0.9,0.4,1.8,0.6,2.6
	c0.2,0.8,0.3,1.5,0.5,2.3c0.5,2.3,1,4.6,1.5,7c0.2,1.1,0.4,2.2,0.7,3.2c0.4,2.1,0.8,4.3,1.2,6.4c0,0.1,0,0.1,0,0.2
	c0.7,4.1,1.4,8.2,2.1,12.5c0.3,1.9,0.6,3.9,0.9,5.8c0.1,0.3,0.1,0.6,0.1,1c0.3,1.9,0.5,3.7,0.8,5.6c0,0.2,0.1,0.4,0.1,0.6
	c0.1,0.9,0.2,1.9,0.4,2.8c0.2,1.6,0.4,3.1,0.6,4.7c0.6,4.7,1.1,9.5,1.5,14.4c1.9,20.1,3,41.9,3.1,65.7c0,0.5,0,0.9,0,1.4
	c0,1.3,0,2.7,0,4v-92.5c0,0,0-0.1,0-0.2c-0.5-4.4-7.5-63.4-22.2-120.6c-5.9-22.8-13-45.4-21.5-64c0,0,42.4,33.2,43.7,78.7
	c0,0.5,0,1,0,1.5L316.7,233.2L316.7,233.2z M242.5,255c-2.7-10.6-9.1-20.8-9.5-21.5c0.6,0.6,16.7,15.7,28.8,22
	c12.3,6.4,22.3,25.1,24.6,38.5C286.4,294.1,251.5,285.8,242.5,255z"/>
<path d="M316.7,145.5v137.1c0,0,0-0.1,0-0.3c0-0.1,0-0.1,0-0.2c0-0.1,0-0.2,0-0.3c0,0,0-0.1,0-0.2c-0.3-6-2.5-39.1-14.5-56.2
	c-0.9-1.3-1.9-2.5-2.9-3.6c-16-17-14.5-44.4-14.5-44.4c22.8,30.7,31.3-27.3,32-31.7c0-0.1,0-0.1,0-0.1
	C316.7,145.5,316.7,145.5,316.7,145.5z"/>
<path class="st81" d="M306.4,308.1c0,0,9.4,11.6,10.3,36.5v3.2C316.7,347.8,315.4,326.9,306.4,308.1z"/>
<path class="st80" d="M419.6,259.2c6.4-3.2,13.5-6.5,20.5-9.7c17-59.2,18-114,18-114c-1.4,2.1-2.8,4.1-4.1,6.1
	c-0.3,0.4-0.5,0.8-0.8,1.2c-0.4,0.6-0.8,1.2-1.2,1.7c-0.8,1-1.5,2.1-2.2,3.1c-2.1,2.9-4.2,5.5-6.2,8c0,0,0,0,0,0
	c-0.9,1.1-1.8,2.2-2.7,3.3c-0.8,1-1.6,1.9-2.4,2.9c0,0.1-0.1,0.1-0.2,0.2c-0.4,0.5-0.8,1-1.2,1.4c-4.4,5.1-8.1,8.9-10.4,11.2
	l-74.9,39.9l0,0l-0.1,0.1l-0.1,0c-30.1,17.9-34.4,62.4-34.8,67.5v-0.4c0.3-6,2.5-39.1,14.5-56.2l-14.5,7.7l0,0l0,0v167.6
	c0,0.5,0,1,0,1.5c0,0.2,0,0.5,0,0.7c0-46.6,43.7-80.9,43.7-80.9c-8.5,18.6-15.6,41.2-21.5,64c-15.3,59.4-22.2,120.9-22.2,120.9
	s0,0,0-0.1c0,0,0-0.1,0-0.2v92.6c0-1.3,0-2.6,0-3.9c0-0.5,0-0.9,0-1.4c0-0.9,0-1.8,0-2.7c0-4.7,0.1-9.2,0.2-13.7v-0.2
	c0.1-2.9,0.2-5.8,0.3-8.7c0-0.1,0-0.2,0-0.3c0.1-2.8,0.2-5.6,0.4-8.4c0.1-3.1,0.3-6.1,0.5-9c0.2-3.1,0.4-6.3,0.6-9.3
	c0.2-3.1,0.5-6.1,0.7-9.1c0.2-2,0.4-4,0.6-5.9c0.1-1.3,0.3-2.6,0.4-3.9c0.2-1.5,0.3-3,0.5-4.4c0-0.1,0-0.1,0-0.1
	c0.2-1.6,0.3-3.1,0.5-4.6c0.1-0.6,0.1-1.3,0.2-1.9c0.1-0.7,0.2-1.3,0.2-1.9c0.3-2.6,0.6-5.1,1-7.6c0-0.2,0.1-0.4,0.1-0.7
	c0.4-2.7,0.8-5.3,1.2-7.9c0.1-0.9,0.3-1.7,0.4-2.6c0.1-0.4,0.1-0.8,0.2-1.2c0.1-0.9,0.3-1.9,0.5-2.8c0.4-2.3,0.8-4.5,1.2-6.7
	c0.2-1.2,0.4-2.3,0.7-3.5c0.7-3.4,1.3-6.8,2.1-10.1c0.2-1.2,0.5-2.4,0.8-3.5c0.3-1.2,0.5-2.3,0.8-3.5c0.6-2.4,1.1-4.8,1.8-7.2
	c0.5-1.8,0.9-3.6,1.4-5.4c0.4-1.3,0.7-2.7,1.1-4c0.2-0.7,0.4-1.3,0.6-2c0.4-1.3,0.7-2.6,1.1-3.9c0.6-1.9,1.2-3.8,1.7-5.7
	c1.2-4,2.6-7.8,3.9-11.6c0.3-0.8,0.5-1.5,0.8-2.3c1.1-3,2.2-6,3.4-8.9c0.5-1.3,1-2.6,1.6-3.8c0.7-1.6,1.3-3.1,2-4.6
	c0.4-0.8,0.8-1.7,1.2-2.5c1.5-3.1,3-6,4.6-8.9c0.3-0.6,0.7-1.2,1-1.8c0.3-0.6,0.7-1.2,1-1.8c0,0,0,0,0,0c0,0,0,0,0,0s0,0,0,0
	c1.7-3,3.6-5.8,5.5-8.7c0,0,0,0,0,0c0,0,0,0,0-0.1c0.6-0.9,1.3-1.8,1.9-2.7c0.1-0.2,0.3-0.4,0.4-0.6c0.4-0.6,0.8-1.2,1.2-1.7
	c0.3-0.5,0.7-0.9,1-1.4c0.7-0.9,1.4-1.8,2.1-2.8c0.6-0.8,1.2-1.6,1.9-2.4c0.7-0.9,1.5-1.8,2.2-2.7c0.6-0.8,1.2-1.5,1.9-2.2
	c2.6-3,5.2-5.8,7.8-8.6c0.6-0.7,1.3-1.3,1.9-1.9c0.7-0.7,1.3-1.3,2-2c4.1-4,8.3-7.8,12.5-11.3c0,0,0,0,0,0
	c14.9-20.6,25.9-44.5,34.2-68.6c-8.3,5-15.4,11-20.2,18.7c-21.8,34.8-53.9,28.3-53.9,28.3C394.4,300.2,398.3,269.8,419.6,259.2z
	 M346.9,294.1c2.2-13.4,12.3-32.1,24.6-38.5c12-6.3,28.1-21.5,28.8-22c-0.4,0.6-6.8,10.9-9.5,21.5
	C381.8,285.8,346.9,294.1,346.9,294.1z"/>
<path d="M334.1,221.8c-1,1.1-2,2.3-2.9,3.6c-12,17.1-14.2,50.3-14.5,56.2c0,0.1,0,0.1,0,0.2c0,0.1,0,0.2,0,0.3c0,0.1,0,0.2,0,0.2
	v0.1c0,0.1,0,0.1,0,0.1V145.5c0,0,0,0,0,0.1c0,0,0,0.1,0,0.1c0.6,4.4,9.2,62.4,31.9,31.7C348.6,177.4,350.1,204.8,334.1,221.8z"/>
<path class="st81" d="M326.9,308.1c0,0-9.4,11.6-10.3,36.5v3.2C316.6,347.8,317.9,326.9,326.9,308.1z"/>
<path d="M121.2,361c0,0,51,4.4,81.6-29.1l0,0c-40.4-26.7-63-25.9-107-51.3c-9.3-5.4-18.9-11.5-28.5-18.6
	c-17.3-12.6-34.9-28.2-51.7-47.4c0,0,0,0.1,0.1,0.2c0.9,4,16.9,69,138.3,111c0,0-43.1,5.1-82.8-14.5
	C71.1,311.3,89.2,344.1,121.2,361L121.2,361z"/>
<path d="M265.9,398.6c-5.3-22.6-29.7-42.8-47.6-56l0,0c0,0,0,0,0,0c-5,8.8-17.4,22.1-47.2,27.3h0c0,0-29,26.7-69.2-3.9
	c9.9,11.2,25.8,26.7,49.3,40.7c3.9,2.3,76.9,44.8,105,25.3c8-5.5,9.5-14.1,10.3-18.4C267.4,408.6,267.1,403.5,265.9,398.6z"/>
<path d="M512.1,361c0,0-51,4.4-81.6-29.1l0,0c40.4-26.7,63-25.9,107-51.3c9.3-5.4,18.9-11.5,28.5-18.6
	c17.3-12.6,34.9-28.2,51.7-47.4c0,0,0,0.1-0.1,0.2c-0.9,4-16.9,69-138.3,111c0,0,43.1,5.1,82.8-14.5
	C562.2,311.3,544.2,344.1,512.1,361L512.1,361z"/>
<path d="M367.4,398.6c5.3-22.6,29.7-42.8,47.6-56l0,0c0,0,0,0,0,0c5,8.8,17.4,22.1,47.2,27.3h0c0,0,29,26.7,69.2-3.9
	c-9.9,11.2-25.8,26.7-49.3,40.7c-3.9,2.3-76.9,44.8-105,25.3c-8-5.5-9.5-14.1-10.3-18.4C365.9,408.6,366.2,403.5,367.4,398.6z"/>
</svg>
