<?xml version="1.0" encoding="utf-8"?>
<!-- Generator: Adobe Illustrator 26.1.0, SVG Export Plug-In . SVG Version: 6.00 Build 0)  -->
<svg version="1.1" id="Layer_1" xmlns="http://www.w3.org/2000/svg" xmlns:xlink="http://www.w3.org/1999/xlink" x="0px" y="0px"
	 viewBox="0 0 630.9 612" style="enable-background:new 0 0 630.9 612;" xml:space="preserve">
<style type="text/css">
	.st0{fill:url(#SVGID_1_);}
	.st1{fill:url(#SVGID_00000081616508270560150540000006854388624848926615_);}
	.st2{fill:url(#SVGID_00000069390468944266578630000010935661978876371365_);}
	.st3{fill:url(#SVGID_00000104680669013375018770000017073644944863136935_);}
	.st4{fill:url(#SVGID_00000081614031330329348430000006124355764046025627_);}
	.st5{fill:url(#SVGID_00000105412370019081735460000005568585482205180322_);}
	.st6{fill:url(#SVGID_00000025401729020671403220000006029834070466041738_);}
	.st7{fill:#FFAB08;}
	.st8{opacity:0.43;fill:url(#SVGID_00000023980193810473104930000018352354070556017569_);}
	.st9{opacity:4.000000e-02;fill:url(#SVGID_00000066501571251892661290000010584024534516043138_);}
	.st10{fill:url(#SVGID_00000179610147594788970120000006011245873588908731_);}
	.st11{fill:url(#SVGID_00000044869880053766338710000010244871031682319255_);}
	.st12{fill:url(#SVGID_00000132773365717160821780000015713198527036481195_);}
	.st13{fill:url(#SVGID_00000120548272243740183580000005257777031705296537_);}
	.st14{opacity:0.49;fill:url(#SVGID_00000065046296283876170300000008117445972474570428_);}
	.st15{fill:url(#SVGID_00000106133042207444078420000002984328039794376843_);}
	.st16{fill:url(#SVGID_00000018227750274898495220000017492553506126816145_);}
	.st17{opacity:4.000000e-02;fill:url(#SVGID_00000146474100869254549570000015145469074525139857_);}
	.st18{fill:url(#SVGID_00000103967058282946783310000008676209247700973214_);}
	.st19{fill:url(#SVGID_00000080924468560775205920000004123365214411218106_);}
	.st20{fill:url(#SVGID_00000053505627167308157570000007988215310429879433_);}
	.st21{fill:url(#SVGID_00000023249929748019824950000003482431127371748258_);}
	.st22{opacity:0.49;fill:url(#SVGID_00000027567384108168051920000015784304468392530109_);}
	.st23{fill:url(#SVGID_00000065070111707374342400000017559299255484236986_);}
	.st24{fill:url(#SVGID_00000121998314237501319060000004117328523513690009_);}
	.st25{opacity:0.47;fill:url(#SVGID_00000083081300523113562850000000010618629860472490_);}
	.st26{fill:url(#SVGID_00000065789880737682518740000014652505276209462406_);}
	.st27{fill:url(#SVGID_00000073700469647817255040000010881531623120379310_);}
	.st28{fill:url(#SVGID_00000052063079900828133790000013008868798592530574_);}
	.st29{fill:url(#SVGID_00000153675343956917519200000012960465499382211978_);}
	.st30{fill:url(#SVGID_00000059992802830791285310000017324533072814688436_);}
	.st31{fill:url(#SVGID_00000093889460779561740600000011790038684158348173_);}
	.st32{fill:url(#SVGID_00000145053024140344466590000013164148396341810581_);}
	.st33{opacity:0.43;fill:url(#SVGID_00000130648151026331434360000016851756957191379586_);}
	.st34{opacity:4.000000e-02;fill:url(#SVGID_00000051380057166009814840000007744745635075836546_);}
	.st35{fill:url(#SVGID_00000078038532579468844580000007032880889091602834_);}
	.st36{fill:url(#SVGID_00000016785200687150240690000017304666965435265413_);}
	.st37{fill:url(#SVGID_00000145040324515101870260000006636959994679593380_);}
	.st38{fill:url(#SVGID_00000128447967980870710360000002758380114080677024_);}
	.st39{opacity:0.49;fill:url(#SVGID_00000082366255788829104770000009418061715836818050_);}
	.st40{fill:url(#SVGID_00000096031076262277247390000015507280890187355548_);}
	.st41{fill:url(#SVGID_00000155849262056265113010000001303952416834265253_);}
	.st42{opacity:4.000000e-02;fill:url(#SVGID_00000047039610437903802310000014334523784157240241_);}
	.st43{fill:url(#SVGID_00000096054972985151386390000003042176932529165227_);}
	.st44{fill:url(#SVGID_00000057835875402442771550000006402337798696859813_);}
	.st45{fill:url(#SVGID_00000139294044934356702210000015202388132143301531_);}
	.st46{fill:url(#SVGID_00000067950013630025276180000009470986611271045034_);}
	.st47{opacity:0.49;fill:url(#SVGID_00000001658353532174878020000003664278610002671507_);}
	.st48{fill:url(#SVGID_00000037655779184621829440000011857247282809204660_);}
	.st49{fill:url(#SVGID_00000160876922983380956830000009249076545118263172_);}
	.st50{fill:#FFFFFF;}
	.st51{opacity:0.47;fill:url(#SVGID_00000095301117711568901060000011408529168267901612_);}
	.st52{fill:url(#SVGID_00000050660337700264883330000005442568094409898417_);}
	.st53{fill:url(#SVGID_00000139291157858835854700000016012073941157924535_);}
	.st54{fill:url(#SVGID_00000037691728917333940110000015095018566675030156_);}
	.st55{fill:url(#SVGID_00000165928058377444766300000007103034217958201218_);}
	.st56{fill:url(#SVGID_00000076566436314828762040000004229185092639180714_);}
	.st57{fill:url(#SVGID_00000069386359572213289990000013644286760016736405_);}
	.st58{fill:url(#SVGID_00000012437960011219641240000007916000094823937672_);}
	.st59{opacity:0.43;fill:url(#SVGID_00000123424247920203083180000006063835715529375399_);}
	.st60{opacity:4.000000e-02;fill:url(#SVGID_00000157275715518912157320000010064687210029922471_);}
	.st61{fill:url(#SVGID_00000121247867418443313470000005882217252728058271_);}
	.st62{fill:url(#SVGID_00000142863790455581524100000017803517604943903160_);}
	.st63{fill:url(#SVGID_00000124126800600929378860000005738636978450389122_);}
	.st64{fill:url(#SVGID_00000080172621922846295870000009138183854490115224_);}
	.st65{opacity:0.49;fill:url(#SVGID_00000149348071817828228360000017541297926523844789_);}
	.st66{fill:url(#SVGID_00000152265246220855626660000013440816755079582877_);}
	.st67{fill:url(#SVGID_00000127032888109487248550000010874980334774700475_);}
	.st68{opacity:4.000000e-02;fill:url(#SVGID_00000147920421611161480200000009619128665212000902_);}
	.st69{fill:url(#SVGID_00000071561048890593343100000014444982757209083272_);}
	.st70{fill:url(#SVGID_00000046309844114480956360000018299014632489649039_);}
	.st71{fill:url(#SVGID_00000036212119567806295160000012389161603124800934_);}
	.st72{fill:url(#SVGID_00000168118907329115761900000012941278619296578739_);}
	.st73{opacity:0.49;fill:url(#SVGID_00000060746018497078605380000013915389595735127221_);}
	.st74{fill:url(#SVGID_00000165204053340694182680000009532104660368026794_);}
	.st75{fill:url(#SVGID_00000083811688940789922110000000308499180081641636_);}
	.st76{fill:#2B4754;}
	.st77{opacity:0.47;fill:url(#SVGID_00000011729252500290133630000000625421808287306673_);}
	.st78{fill:#414042;}
	.st79{opacity:0.43;}
	.st80{opacity:4.000000e-02;}
	.st81{opacity:0.49;}
	.st82{fill:#BEBFBD;}
	.st83{opacity:0.43;fill:#FFFFFF;}
	.st84{opacity:4.000000e-02;fill:#FFFFFF;}
	.st85{opacity:0.49;fill:#FFFFFF;}
</style>
<path class="st50" d="M373.6,456.8c0,0-47,43.8-56.9,142.4v0.2c0,0,0-0.1,0-0.1c0,0,0,0.1,0,0.1v-0.2
	c-10-98.6-56.9-142.4-56.9-142.4c27.5-32.9,22-58.7,15.8-71.5c0,0,0-0.1,0-0.1c0,0,0,0,0-0.1v0c-2.6-5.3-5.2-8.4-5.5-8.7
	c0,0,0,0,0,0l24.5,9.6c14.7,57.2,21.7,116.2,22.2,120.6c0,0.1,0,0.1,0,0.2c0,0.1,0,0.1,0,0.1s6.9-61.5,22.2-120.9l24.5-9.5
	c0,0,0,0,0,0c-0.3,0.4-2.9,3.4-5.5,8.7c0,0,0,0,0,0s0,0,0,0c0,0,0,0,0,0C351.7,397.9,345.9,423.7,373.6,456.8z"/>
<path class="st50" d="M613.6,129c-32.3,102.2-102.9,125.4-137.8,130.5c115-38.8,109.6-176.3,109.6-176.3
	c-8.3,63.9-37.3,102.7-66.7,126c-11.7,34-55.3,40.6-84.3,58.2c-8.3,5-15.4,11-20.2,18.7c-21.8,34.8-53.9,28.3-53.9,28.3
	c34-14.3,38-44.7,59.2-55.3c6.4-3.2,13.5-6.5,20.5-9.7c16.3-7.4,31.4-13.5,31.4-13.5c122.2-69.4,68.2-214.2,68.2-214.2
	c26.8,140.8-82.1,195.2-82.1,195.2l0,0c116.6-74.5,43.6-206.6,43.6-206.6c-3.1,53.3-23.8,96.2-43,125.1c-1.4,2.1-2.8,4.1-4.1,6.1
	c-0.3,0.4-0.5,0.8-0.8,1.2c-0.4,0.6-0.8,1.2-1.2,1.7c-0.8,1-1.5,2.1-2.2,3.1c-2.1,2.9-4.2,5.5-6.2,8c0,0,0,0,0,0
	c-0.9,1.1-1.8,2.2-2.7,3.3c-0.8,1-1.6,1.9-2.4,2.9c0,0.1-0.1,0.1-0.2,0.2c-0.4,0.5-0.8,1-1.2,1.4c-4.4,5.1-8.1,8.9-10.4,11.2
	l-74.9,39.9l0,0l-0.1,0.1l-0.1,0c-30.1,17.9-34.4,62.4-34.8,67.5v-0.4c0.3-6,2.5-39.1,14.5-56.2l-14.5,7.7l0,0l0,0l-14.5-7.7
	c12,17.1,14.2,50.3,14.5,56.2v0.4c-0.4-5.1-4.7-49.6-34.8-67.5l0,0l0,0l-0.1-0.1l-74.9-39.9c-3.4-3.4-9.6-9.8-16.9-19l0,0
	c-1.7-2.1-3.5-4.4-5.3-6.8c-0.6-0.8-1.2-1.6-1.8-2.5c-2.5-3.3-5-6.9-7.5-10.8c-19.2-28.9-39.9-71.8-43-125.1
	c0,0-73.1,132.1,43.6,206.6l0,0c0,0-108.9-54.5-82.1-195.2c0,0-54,144.8,68.2,214.2c0,0,15.1,6.2,31.4,13.5c7,3.1,14.2,6.5,20.5,9.7
	c21.2,10.6,25.2,41,59.2,55.3c0,0-32.1,6.5-53.9-28.3c-4.8-7.7-11.9-13.7-20.2-18.7c-29-17.7-72.5-24.3-84.3-58.2
	c-29.4-23.3-58.3-62-66.7-126c0,0-5.4,137.4,109.7,176.3C122.7,254.4,52,231.2,19.7,129c0.5,3,15.9,98.9,87,138.7l0,0
	c0,0,0.2,0.1,0.6,0.3c0.5,0.3,1.1,0.6,1.7,0.9c7.5,4,32.4,17.1,64,30.3c1.2,0.5,2.5,1,3.8,1.5c8.9,3.9,32.3,15.1,56.2,35.1
	c0,0,0,0,0,0c12.9,10.8,26,24.2,36.9,40.3c0,0,0,0,0,0c1.9,2.8,3.8,5.7,5.5,8.7v0c0,0,0,0,0,0.1c0,0,0,0.1,0,0.1
	c0.3,0.5,0.7,1.1,1,1.6c0.6,1.1,1.2,2.1,1.8,3.2c0.1,0.2,0.2,0.3,0.2,0.5c0.4,0.8,0.9,1.6,1.3,2.4c0.2,0.4,0.5,0.9,0.7,1.3
	c0.4,0.8,0.8,1.6,1.2,2.4c0.5,1.1,1.1,2.2,1.6,3.4c3.7,8.3,7.1,17.2,10.4,26.9c1.3,3.9,2.5,7.9,3.7,12c0.7,2.5,1.5,5.1,2.2,7.8
	c0.5,1.8,0.9,3.5,1.4,5.3c0.3,1.2,0.6,2.3,0.9,3.5c0.3,1.1,0.5,2.2,0.8,3.3c0.2,0.9,0.4,1.8,0.6,2.6c0.2,0.8,0.3,1.5,0.5,2.3
	c0.5,2.3,1,4.6,1.5,7c0.2,1.1,0.4,2.2,0.7,3.2c0.4,2.1,0.8,4.3,1.2,6.4c0,0.1,0,0.1,0,0.2c0.7,4.1,1.4,8.2,2.1,12.5
	c0.3,1.9,0.6,3.9,0.9,5.8c0.1,0.3,0.1,0.6,0.1,1c0.3,1.9,0.5,3.7,0.8,5.6c0,0.2,0.1,0.4,0.1,0.6c0.1,0.9,0.2,1.9,0.4,2.8
	c0.2,1.6,0.4,3.1,0.6,4.7c0.6,4.7,1.1,9.5,1.5,14.4c2,20.8,3,43.6,3.1,68.4v2.6c0-0.4,0-0.8,0-1.1c0,0.4,0,0.8,0,1.2v-2.7
	c0-1.8,0-3.6,0-5.4c0-4.7,0.1-9.2,0.2-13.7v-0.2c0.1-2.9,0.2-5.8,0.3-8.7c0-0.1,0-0.2,0-0.3c0.1-2.8,0.2-5.6,0.4-8.4
	c0.1-3.1,0.3-6.1,0.5-9c0.2-3.1,0.4-6.3,0.6-9.3c0.2-3.1,0.5-6.1,0.7-9.1c0.2-2,0.4-4,0.6-5.9c0.1-1.3,0.3-2.6,0.4-3.9
	c0.2-1.5,0.3-3,0.5-4.4c0-0.1,0-0.1,0-0.1c0.2-1.6,0.3-3.1,0.5-4.6c0.1-0.6,0.1-1.3,0.2-1.9c0.1-0.7,0.2-1.3,0.2-1.9
	c0.3-2.6,0.7-5.1,1-7.6c0-0.2,0.1-0.4,0.1-0.7c0.4-2.7,0.8-5.3,1.2-7.9c0.1-0.9,0.3-1.7,0.4-2.6c0.1-0.4,0.1-0.8,0.2-1.2
	c0.1-0.9,0.3-1.9,0.5-2.8c0.4-2.3,0.8-4.5,1.2-6.7c0.2-1.2,0.4-2.3,0.7-3.5c0.7-3.4,1.3-6.8,2.1-10.1c0.2-1.2,0.5-2.4,0.8-3.5
	c0.3-1.2,0.5-2.3,0.8-3.5c0.6-2.4,1.1-4.8,1.8-7.2c0.5-1.8,0.9-3.6,1.4-5.4c0.4-1.3,0.7-2.7,1.1-4c0.2-0.7,0.4-1.3,0.6-2
	c0.4-1.3,0.8-2.6,1.1-3.9c0.6-1.9,1.2-3.8,1.7-5.7c1.2-4,2.6-7.8,3.9-11.6c0.3-0.8,0.5-1.5,0.8-2.3c1.1-3,2.2-6,3.4-8.9
	c0.5-1.3,1-2.6,1.6-3.8c0.7-1.6,1.3-3.1,2-4.6c0.4-0.8,0.8-1.7,1.2-2.5c1.5-3.1,3-6,4.6-8.9c0.3-0.6,0.7-1.2,1-1.8
	c0.3-0.6,0.7-1.2,1-1.8c0,0,0,0,0,0c0,0,0,0,0,0s0,0,0,0c1.7-3,3.6-5.8,5.5-8.7c0,0,0,0,0,0c0,0,0,0,0-0.1c0.6-0.9,1.3-1.8,1.9-2.7
	c0.1-0.2,0.3-0.4,0.4-0.6c0.4-0.6,0.8-1.2,1.2-1.7c0.3-0.5,0.7-0.9,1-1.4c0.7-0.9,1.4-1.8,2.1-2.8c0.6-0.8,1.2-1.6,1.9-2.4
	c0.7-0.9,1.5-1.8,2.2-2.7c0.6-0.8,1.2-1.5,1.9-2.2c2.6-3,5.2-5.8,7.8-8.6c0.6-0.7,1.3-1.3,1.9-1.9c0.7-0.7,1.3-1.3,2-2
	c4.1-4,8.3-7.8,12.5-11.3c0,0,0,0,0,0c23.9-20,47.3-31.2,56.2-35.1c1.2-0.5,2.5-1,3.7-1.5c31.6-13.3,56.5-26.3,64-30.3
	c0.6-0.3,1.2-0.6,1.7-0.9c0.4-0.2,0.6-0.3,0.6-0.3l0,0C597.7,227.9,613.1,132,613.6,129z M390.8,254.9c-9,30.7-43.9,39.1-43.9,39.1
	c2.2-13.4,12.3-32.1,24.6-38.5c12-6.3,28.1-21.5,28.8-22C399.9,234.1,393.5,244.4,390.8,254.9z M242.5,254.9
	c-2.7-10.6-9.1-20.8-9.5-21.5c0.6,0.6,16.7,15.7,28.8,22c12.3,6.4,22.3,25.1,24.6,38.5C286.4,294,251.5,285.6,242.5,254.9z
	 M316.7,506.8C316.7,506.8,316.7,506.8,316.7,506.8c0-0.1,0-0.2,0-0.3c-0.5-4.4-7.5-63.4-22.2-120.6c-5.9-22.8-13-45.4-21.5-64
	c0,0,42.4,33.2,43.7,78.7c0,0.5,0,1,0,1.5c0,0.2,0,0.5,0,0.7c0-46.6,43.7-80.9,43.7-80.9c-8.5,18.6-15.6,41.2-21.5,64
	C323.6,445.3,316.7,506.8,316.7,506.8z"/>
<path class="st50" d="M220.4,110.4c-0.1-0.2-0.2-0.3-0.2-0.3S220.3,110.3,220.4,110.4z"/>
<path class="st82" d="M316.7,145.5c0,0,0,0.1,0,0.1v-0.3C316.7,145.3,316.7,145.4,316.7,145.5z M316.6,145.6c0-0.1,0-0.1,0-0.1
	c0-0.1,0-0.1,0-0.1V145.6z M284.7,177.3c0,0-1.5,27.4,14.5,44.4c1,1.1,2,2.3,2.9,3.6l14.5,7.7v-87.4C316,150,307.5,208,284.7,177.3z
	 M398.4,177.2c-15.4-14.7,10.1-59.2,14.2-66.1c-4.1,6.6-31,47.6-59.8,40.1c-29.9-7.7-35.7-77.6-36.1-83.8v-0.5c0,0,0,0.1,0,0.3
	c0-0.2,0-0.3,0-0.3v0.5c-0.5,6.3-6.2,76.1-36.1,83.8c-28.7,7.4-55.6-33.4-59.8-40.1c4.1,7,29.5,51.4,14.1,66.1
	c-16.5,15.7-45.5-24.2-46.2-25.1c0,0.1,0.4,1.4,1.1,3.4l0,0c4.4,13.1,23,60.2,66.4,81.9c30.5,14.5,38.4,42.1,39.1,48.8l0,0
	c0.6,0.5,20.9,18,21.3,49.4v0.9c0-0.1,0-0.2,0-0.2c0-0.1,0-0.1,0-0.2c0,0.1,0,0.2,0,0.2c0,0.1,0,0.1,0,0.2v-0.9
	c0.4-31.3,20.7-48.8,21.3-49.4l0,0c0.8-6.7,8.6-34.3,39.1-48.8c43.4-21.7,61.9-68.8,66.4-81.9c0,0,0,0,0,0c0.7-2,1-3.3,1.1-3.4
	C443.9,153,414.9,192.9,398.4,177.2z M351.6,214.4l-0.1,0.1l-0.1,0c-30.1,17.9-34.4,62.4-34.8,67.5v-0.4c0.3-6,2.5-39.1,14.5-56.2
	c0.9-1.3,1.9-2.5,2.9-3.6c16-17,14.5-44.4,14.5-44.4c-22.8,30.7-31.3-27.3-31.9-31.7v-0.3c0,0,0,0,0,0.1c0-0.1,0-0.1,0-0.1v0.3
	c-0.6,4.4-9.2,62.4-32,31.7c0,0-1.5,27.4,14.5,44.4c1,1.1,2,2.3,2.9,3.6c12,17.1,14.2,50.3,14.5,56.2v0.4
	c-0.4-5.1-4.7-49.6-34.8-67.5l0,0l0,0l-0.1-0.1c-31.8-19-28.9-49.6-28.9-49.6c46.2,34.9,63.2-32.5,63.9-35.6V129c0,0,0,0.1,0,0.1
	c0,0,0-0.1,0-0.1v0.2c0.8,3.1,17.7,70.5,63.9,35.6C380.6,164.7,383.5,195.3,351.6,214.4L351.6,214.4z"/>
<path class="st50" d="M412.9,110.4c0.1-0.2,0.2-0.3,0.2-0.3S413.1,110.3,412.9,110.4z"/>
<path class="st50" d="M334.1,221.7c-1,1.1-2,2.3-2.9,3.6c-12,17.1-14.2,50.3-14.5,56.2v0.9c0,0,0,0,0-0.1c0,0,0-0.1,0-0.2
	c0,0,0,0.1,0,0.1c0,0.1,0,0.1,0,0.1v-0.9c-0.3-6-2.5-39.1-14.5-56.2c-0.9-1.3-1.9-2.5-2.9-3.6c-16-17-14.5-44.4-14.5-44.4
	c22.8,30.7,31.3-27.3,32-31.7v-0.3c0,0,0,0,0,0.1c0-0.1,0-0.1,0-0.1v0.3c0.6,4.4,9.2,62.4,31.9,31.7
	C348.6,177.3,350.1,204.7,334.1,221.7z"/>
<path class="st83" d="M345.8,300.6l-7.8-14.5l-21.3,9.1l-21.3-9.1l-7.8,14.5c0,0,28.7,26.3,29.1,70.2v0.9c0-0.2,0-0.3,0-0.4
	c0,0.2,0,0.3,0,0.4v-0.9C317.1,326.9,345.8,300.6,345.8,300.6z"/>
<path class="st84" d="M316.7,233L316.7,233l-14.5-7.7c12,17.1,14.2,50.3,14.5,56.2v0.4c-0.4-5.1-4.7-49.6-34.8-67.5l0,0l0,0
	l-0.1-0.1l-74.9-39.9c-3.4-3.4-9.6-9.8-16.9-19l0,0c-1.7-2.1-3.5-4.4-5.3-6.8c-0.6-0.8-1.2-1.6-1.8-2.5c-2.5-3.3-5-6.9-7.5-10.8
	c0,0,1,54.8,18,114c7,3.1,14.2,6.5,20.5,9.7c21.2,10.6,25.2,41,59.2,55.3c0,0-32.1,6.5-53.9-28.3c-4.8-7.7-11.9-13.7-20.2-18.7
	c8.2,24.1,19.3,48,34.2,68.6c0,0,0,0,0,0c12.9,10.8,26,24.2,36.9,40.3c0,0,0,0,0,0c1.9,2.8,3.8,5.7,5.5,8.7v0c0,0,0,0,0,0.1
	c0,0,0,0.1,0,0.1c0.3,0.5,0.7,1.1,1,1.6c0.6,1.1,1.2,2.1,1.8,3.2c0.1,0.2,0.2,0.3,0.2,0.5c0.4,0.8,0.9,1.6,1.3,2.4
	c0.2,0.4,0.5,0.9,0.7,1.3c0.4,0.8,0.8,1.6,1.2,2.4c0.5,1.1,1.1,2.2,1.6,3.4c3.7,8.3,7.1,17.2,10.4,26.9c1.3,3.9,2.5,7.9,3.7,12
	c0.7,2.5,1.5,5.1,2.2,7.8c0.5,1.8,0.9,3.5,1.4,5.3c0.3,1.2,0.6,2.3,0.9,3.5c0.3,1.1,0.5,2.2,0.8,3.3c0.2,0.9,0.4,1.8,0.6,2.6
	c0.2,0.8,0.3,1.5,0.5,2.3c0.5,2.3,1,4.6,1.5,7c0.2,1.1,0.4,2.2,0.7,3.2c0.4,2.1,0.8,4.3,1.2,6.4c0,0.1,0,0.1,0,0.2
	c0.7,4.1,1.4,8.2,2.1,12.5c0.3,1.9,0.6,3.9,0.9,5.8c0.1,0.3,0.1,0.6,0.1,1c0.3,1.9,0.5,3.7,0.8,5.6c0,0.2,0.1,0.4,0.1,0.6
	c0.1,0.9,0.2,1.9,0.4,2.8c0.2,1.6,0.4,3.1,0.6,4.7c0.6,4.7,1.1,9.5,1.5,14.4c1.9,20.1,3,41.9,3.1,65.7c0,0.5,0,0.9,0,1.4
	c0,1.3,0,2.7,0,4v-92.5c0,0,0-0.1,0-0.2c-0.5-4.4-7.5-63.4-22.2-120.6c-5.9-22.8-13-45.4-21.5-64c0,0,42.4,33.2,43.7,78.7
	c0,0.5,0,1,0,1.5L316.7,233L316.7,233z M242.5,254.9c-2.7-10.6-9.1-20.8-9.5-21.5c0.6,0.6,16.7,15.7,28.8,22
	c12.3,6.4,22.3,25.1,24.6,38.5C286.4,294,251.5,285.6,242.5,254.9z"/>
<path class="st50" d="M316.7,145.3v137.1c0,0,0-0.1,0-0.3c0-0.1,0-0.1,0-0.2c0-0.1,0-0.2,0-0.3c0,0,0-0.1,0-0.2
	c-0.3-6-2.5-39.1-14.5-56.2c-0.9-1.3-1.9-2.5-2.9-3.6c-16-17-14.5-44.4-14.5-44.4c22.8,30.7,31.3-27.3,32-31.7c0-0.1,0-0.1,0-0.1
	C316.7,145.4,316.7,145.3,316.7,145.3z"/>
<path class="st85" d="M306.4,308c0,0,9.4,11.6,10.3,36.5v3.2C316.7,347.7,315.4,326.8,306.4,308z"/>
<path class="st84" d="M419.6,259.1c6.4-3.2,13.5-6.5,20.5-9.7c17-59.2,18-114,18-114c-1.4,2.1-2.8,4.1-4.1,6.1
	c-0.3,0.4-0.5,0.8-0.8,1.2c-0.4,0.6-0.8,1.2-1.2,1.7c-0.8,1-1.5,2.1-2.2,3.1c-2.1,2.9-4.2,5.5-6.2,8c0,0,0,0,0,0
	c-0.9,1.1-1.8,2.2-2.7,3.3c-0.8,1-1.6,1.9-2.4,2.9c0,0.1-0.1,0.1-0.2,0.2c-0.4,0.5-0.8,1-1.2,1.4c-4.4,5.1-8.1,8.9-10.4,11.2
	l-74.9,39.9l0,0l-0.1,0.1l-0.1,0c-30.1,17.9-34.4,62.4-34.8,67.5v-0.4c0.3-6,2.5-39.1,14.5-56.2l-14.5,7.7l0,0l0,0v167.6
	c0,0.5,0,1,0,1.5c0,0.2,0,0.5,0,0.7c0-46.6,43.7-80.9,43.7-80.9c-8.5,18.6-15.6,41.2-21.5,64c-15.3,59.4-22.2,120.9-22.2,120.9
	s0,0,0-0.1c0,0,0-0.1,0-0.2v92.6c0-1.3,0-2.6,0-3.9c0-0.5,0-0.9,0-1.4c0-0.9,0-1.8,0-2.7c0-4.7,0.1-9.2,0.2-13.7v-0.2
	c0.1-2.9,0.2-5.8,0.3-8.7c0-0.1,0-0.2,0-0.3c0.1-2.8,0.2-5.6,0.4-8.4c0.1-3.1,0.3-6.1,0.5-9c0.2-3.1,0.4-6.3,0.6-9.3
	c0.2-3.1,0.5-6.1,0.7-9.1c0.2-2,0.4-4,0.6-5.9c0.1-1.3,0.3-2.6,0.4-3.9c0.2-1.5,0.3-3,0.5-4.4c0-0.1,0-0.1,0-0.1
	c0.2-1.6,0.3-3.1,0.5-4.6c0.1-0.6,0.1-1.3,0.2-1.9c0.1-0.7,0.2-1.3,0.2-1.9c0.3-2.6,0.6-5.1,1-7.6c0-0.2,0.1-0.4,0.1-0.7
	c0.4-2.7,0.8-5.3,1.2-7.9c0.1-0.9,0.3-1.7,0.4-2.6c0.1-0.4,0.1-0.8,0.2-1.2c0.1-0.9,0.3-1.9,0.5-2.8c0.4-2.3,0.8-4.5,1.2-6.7
	c0.2-1.2,0.4-2.3,0.7-3.5c0.7-3.4,1.3-6.8,2.1-10.1c0.2-1.2,0.5-2.4,0.8-3.5c0.3-1.2,0.5-2.3,0.8-3.5c0.6-2.4,1.1-4.8,1.8-7.2
	c0.5-1.8,0.9-3.6,1.4-5.4c0.4-1.3,0.7-2.7,1.1-4c0.2-0.7,0.4-1.3,0.6-2c0.4-1.3,0.7-2.6,1.1-3.9c0.6-1.9,1.2-3.8,1.7-5.7
	c1.2-4,2.6-7.8,3.9-11.6c0.3-0.8,0.5-1.5,0.8-2.3c1.1-3,2.2-6,3.4-8.9c0.5-1.3,1-2.6,1.6-3.8c0.7-1.6,1.3-3.1,2-4.6
	c0.4-0.8,0.8-1.7,1.2-2.5c1.5-3.1,3-6,4.6-8.9c0.3-0.6,0.7-1.2,1-1.8c0.3-0.6,0.7-1.2,1-1.8c0,0,0,0,0,0c0,0,0,0,0,0s0,0,0,0
	c1.7-3,3.6-5.8,5.5-8.7c0,0,0,0,0,0c0,0,0,0,0-0.1c0.6-0.9,1.3-1.8,1.9-2.7c0.1-0.2,0.3-0.4,0.4-0.6c0.4-0.6,0.8-1.2,1.2-1.7
	c0.3-0.5,0.7-0.9,1-1.4c0.7-0.9,1.4-1.8,2.1-2.8c0.6-0.8,1.2-1.6,1.9-2.4c0.7-0.9,1.5-1.8,2.2-2.7c0.6-0.8,1.2-1.5,1.9-2.2
	c2.6-3,5.2-5.8,7.8-8.6c0.6-0.7,1.3-1.3,1.9-1.9c0.7-0.7,1.3-1.3,2-2c4.1-4,8.3-7.8,12.5-11.3c0,0,0,0,0,0
	c14.9-20.6,25.9-44.5,34.2-68.6c-8.3,5-15.4,11-20.2,18.7c-21.8,34.8-53.9,28.3-53.9,28.3C394.4,300.1,398.3,269.7,419.6,259.1z
	 M346.9,294c2.2-13.4,12.3-32.1,24.6-38.5c12-6.3,28.1-21.5,28.8-22c-0.4,0.6-6.8,10.9-9.5,21.5C381.8,285.6,346.9,294,346.9,294z"
	/>
<path class="st50" d="M334.1,221.7c-1,1.1-2,2.3-2.9,3.6c-12,17.1-14.2,50.3-14.5,56.2c0,0.1,0,0.1,0,0.2c0,0.1,0,0.2,0,0.3
	c0,0.1,0,0.2,0,0.2v0.1c0,0.1,0,0.1,0,0.1V145.3c0,0,0,0,0,0.1c0,0,0,0.1,0,0.1c0.6,4.4,9.2,62.4,31.9,31.7
	C348.6,177.3,350.1,204.7,334.1,221.7z"/>
<path class="st85" d="M326.9,308c0,0-9.4,11.6-10.3,36.5v3.2C316.6,347.7,317.9,326.8,326.9,308z"/>
<path class="st50" d="M121.2,360.8c0,0,51,4.4,81.6-29.1l0,0c-40.4-26.7-63-25.9-107-51.3c-9.3-5.4-18.9-11.5-28.5-18.6
	c-17.3-12.6-34.9-28.2-51.7-47.4c0,0,0,0.1,0.1,0.2c0.9,4,16.9,69,138.3,111c0,0-43.1,5.1-82.8-14.5
	C71.1,311.2,89.2,343.9,121.2,360.8L121.2,360.8z"/>
<path class="st50" d="M265.9,398.5c-5.3-22.6-29.7-42.8-47.6-56l0,0c0,0,0,0,0,0c-5,8.8-17.4,22.1-47.2,27.3h0c0,0-29,26.7-69.2-3.9
	c9.9,11.2,25.8,26.7,49.3,40.7c3.9,2.3,76.9,44.8,105,25.3c8-5.5,9.5-14.1,10.3-18.4C267.4,408.5,267.1,403.4,265.9,398.5z"/>
<path class="st50" d="M512.1,360.8c0,0-51,4.4-81.6-29.1l0,0c40.4-26.7,63-25.9,107-51.3c9.3-5.4,18.9-11.5,28.5-18.6
	c17.3-12.6,34.9-28.2,51.7-47.4c0,0,0,0.1-0.1,0.2c-0.9,4-16.9,69-138.3,111c0,0,43.1,5.1,82.8-14.5
	C562.2,311.2,544.2,343.9,512.1,360.8L512.1,360.8z"/>
<path class="st50" d="M367.4,398.5c5.3-22.6,29.7-42.8,47.6-56l0,0c0,0,0,0,0,0c5,8.8,17.4,22.1,47.2,27.3h0c0,0,29,26.7,69.2-3.9
	c-9.9,11.2-25.8,26.7-49.3,40.7c-3.9,2.3-76.9,44.8-105,25.3c-8-5.5-9.5-14.1-10.3-18.4C365.9,408.5,366.2,403.4,367.4,398.5z"/>
</svg>
